<svg width="208" height="56" viewBox="0 0 208 56" fill="none" xmlns="http://www.w3.org/2000/svg">
<g clip-path="url(#clip0_4682_4598)">
<path d="M13.8679 14.8516H18.1355C18.2534 14.8516 18.354 14.8929 18.4368 14.975C18.5183 15.0584 18.5594 15.1592 18.5594 15.2787V39.3047C18.5594 39.4235 18.5183 39.5249 18.4368 39.6063C18.354 39.6897 18.254 39.7311 18.1355 39.7311H14.0083C13.8904 39.7311 13.7911 39.6897 13.7089 39.6063C13.6261 39.5242 13.5851 39.4235 13.5851 39.3047V19.8993C13.5851 19.8038 13.5261 19.7565 13.4095 19.7565L10.6939 20.0761H10.623C10.3634 20.0761 10.2349 19.9467 10.2349 19.6851L10.1289 16.6287C10.1289 16.3924 10.2349 16.2256 10.4462 16.1302L13.3393 14.9583C13.5268 14.8869 13.7036 14.8516 13.8692 14.8516H13.8679Z" fill="#F9F9F9"/>
<path d="M21.7593 29.6726C21.6765 29.5892 21.6367 29.4897 21.6367 29.3709V25.9222C21.6367 25.8047 21.6765 25.7033 21.7593 25.6205C21.842 25.5384 21.9407 25.4971 22.0586 25.4971H26.5706C26.6872 25.4971 26.7879 25.5384 26.87 25.6205C26.9515 25.7039 26.9925 25.8047 26.9925 25.9222V29.3709C26.9925 29.4897 26.9515 29.5898 26.87 29.6726C26.7872 29.756 26.6872 29.796 26.5706 29.796H22.0586C21.9407 29.796 21.8414 29.756 21.7593 29.6726Z" fill="#F9F9F9"/>
<path d="M79.7319 29.6726C79.6491 29.5892 79.6094 29.4897 79.6094 29.3709V25.9222C79.6094 25.8047 79.6491 25.7033 79.7319 25.6205C79.8147 25.5384 79.9134 25.4971 80.0313 25.4971H84.2737C84.3903 25.4971 84.4909 25.5384 84.5731 25.6205C84.6545 25.7039 84.6956 25.8047 84.6956 25.9222V29.3709C84.6956 29.4897 84.6545 29.5898 84.5731 29.6726C84.4903 29.756 84.3903 29.796 84.2737 29.796H80.0313C79.9134 29.796 79.814 29.756 79.7319 29.6726Z" fill="#F9F9F9"/>
<path d="M40.5761 26.8645C41.3523 27.363 41.9279 28.0617 42.3048 28.9612C42.7757 29.9803 43.0102 31.1768 43.0102 32.5515C43.0102 33.6413 42.8214 34.7317 42.4465 35.8214C41.9518 37.1241 41.1636 38.1491 40.0819 38.8952C39.0003 39.6419 37.7425 40.015 36.3078 40.015C34.8732 40.015 33.614 39.6479 32.5337 38.9132C31.4521 38.1798 30.6639 37.1481 30.1691 35.8214C29.7929 34.8505 29.6055 33.76 29.6055 32.5515C29.6055 31.2248 29.8168 30.0637 30.24 29.0687C30.5692 28.1691 31.1686 27.4464 32.0396 26.9005C32.1814 26.8291 32.1814 26.7577 32.0396 26.6876C31.2163 26.1177 30.6288 25.407 30.2758 24.5548C29.8287 23.5125 29.6055 22.4107 29.6055 21.2489C29.6055 19.9683 29.8287 18.8678 30.2758 17.9429C30.7706 16.8291 31.5508 15.9589 32.6212 15.3303C33.6915 14.703 34.9209 14.3887 36.3085 14.3887C37.6961 14.3887 38.8844 14.6903 39.9428 15.2956C41.0013 15.8995 41.7882 16.7691 42.3061 17.9069C42.7771 18.9019 43.0115 20.017 43.0115 21.2482C43.0115 22.4094 42.787 23.4998 42.3412 24.5181C41.9882 25.3703 41.3894 26.069 40.5416 26.6149C40.4469 26.7103 40.4588 26.7917 40.5767 26.8631L40.5761 26.8645ZM34.5082 21.7113C34.5082 22.2559 34.591 22.8011 34.7546 23.3456C34.8493 23.8201 35.0321 24.1991 35.3024 24.4834C35.5726 24.7677 35.9078 24.9105 36.3078 24.9105C36.7079 24.9105 37.049 24.7617 37.3305 24.4661C37.6127 24.1705 37.8014 23.7847 37.8962 23.3103C38.0366 22.8371 38.1075 22.3153 38.1075 21.746C38.1075 21.1301 38.0247 20.6096 37.8611 20.1831C37.7432 19.7327 37.5484 19.371 37.2782 19.0987C37.0079 18.8264 36.6847 18.6896 36.3085 18.6896C35.9084 18.6896 35.5733 18.8264 35.303 19.0987C35.0328 19.371 34.8381 19.756 34.7215 20.2545C34.5798 20.6796 34.5089 21.1661 34.5089 21.712L34.5082 21.7113ZM38.1068 32.2312C38.1068 31.5205 38.0359 30.9045 37.8955 30.3827C37.7776 29.8621 37.5829 29.4531 37.3126 29.1574C37.0424 28.8618 36.7072 28.713 36.3072 28.713C35.8833 28.713 35.5309 28.8678 35.2487 29.1755C34.9666 29.4831 34.7778 29.9102 34.6851 30.4541C34.5672 30.9999 34.5082 31.5678 34.5082 32.1598C34.5082 32.8244 34.5552 33.3923 34.65 33.8655C34.7427 34.4354 34.9321 34.8858 35.2136 35.2175C35.4958 35.5492 35.8601 35.714 36.3072 35.714C36.7543 35.714 37.1252 35.5432 37.4186 35.1995C37.712 34.8558 37.8955 34.3873 37.9651 33.7954C38.0598 33.1795 38.1068 32.6576 38.1068 32.2312Z" fill="#F9F9F9"/>
<path d="M47.7376 38.1493C46.4666 36.8347 45.832 35.0989 45.832 32.9428V21.6408C45.832 19.4846 46.4666 17.7489 47.7376 16.4329C49.0067 15.1183 50.6765 14.4609 52.7457 14.4609C54.1095 14.4609 55.3216 14.7566 56.38 15.3485C57.4385 15.9418 58.2558 16.7833 58.8321 17.8724C59.409 18.9621 59.6971 20.2194 59.6971 21.6408V32.9428C59.6971 34.3642 59.409 35.6208 58.8321 36.7099C58.2565 37.8016 57.4385 38.6418 56.38 39.2337C55.3216 39.8257 54.1101 40.1233 52.7457 40.1233C50.6765 40.1233 49.0067 39.466 47.7376 38.15V38.1493ZM54.1744 35.1109C54.5387 34.6365 54.7222 34.0092 54.7222 33.2271V21.3565C54.7222 20.5744 54.5394 19.9464 54.1744 19.4726C53.8101 18.9981 53.3345 18.7619 52.7457 18.7619C52.1569 18.7619 51.6873 18.9981 51.3349 19.4726C50.9818 19.9471 50.8063 20.5744 50.8063 21.3565V33.2271C50.8063 34.0092 50.9818 34.6371 51.3349 35.1109C51.6879 35.5854 52.1582 35.8216 52.7457 35.8216C53.3332 35.8216 53.8101 35.5854 54.1744 35.1109Z" fill="#F9F9F9"/>
<path d="M64.4251 38.1493C63.1541 36.8347 62.5195 35.0989 62.5195 32.9428V21.6408C62.5195 19.4846 63.1541 17.7489 64.4251 16.4329C65.6942 15.1183 67.364 14.4609 69.4332 14.4609C70.797 14.4609 72.0091 14.7566 73.0675 15.3485C74.126 15.9418 74.9433 16.7833 75.5196 17.8724C76.0965 18.9621 76.3846 20.2194 76.3846 21.6408V32.9428C76.3846 34.3642 76.0965 35.6208 75.5196 36.7099C74.944 37.8016 74.126 38.6418 73.0675 39.2337C72.0091 39.8257 70.7976 40.1233 69.4332 40.1233C67.364 40.1233 65.6942 39.466 64.4251 38.15V38.1493ZM70.8619 35.1109C71.2262 34.6365 71.4097 34.0092 71.4097 33.2271V21.3565C71.4097 20.5744 71.2269 19.9464 70.8619 19.4726C70.4976 18.9981 70.022 18.7619 69.4332 18.7619C68.8444 18.7619 68.3748 18.9981 68.0224 19.4726C67.67 19.9471 67.4938 20.5744 67.4938 21.3565V33.2271C67.4938 34.0092 67.6693 34.6371 68.0224 35.1109C68.3754 35.5854 68.8457 35.8216 69.4332 35.8216C70.0207 35.8216 70.4976 35.5854 70.8619 35.1109Z" fill="#F9F9F9"/>
<path d="M116.157 39.6955L115.591 36.2841C115.591 36.1653 115.52 36.1059 115.38 36.1059H110.898C110.758 36.1059 110.687 36.1653 110.687 36.2841L110.123 39.6955C110.099 39.9571 109.946 40.0866 109.664 40.0866H105.537C105.23 40.0866 105.113 39.9331 105.184 39.6241L110.37 15.5981C110.417 15.3378 110.569 15.207 110.829 15.207H115.59C115.849 15.207 116.002 15.3378 116.049 15.5981L121.199 39.6241L121.234 39.7669C121.234 39.9798 121.105 40.0866 120.846 40.0866H116.613C116.331 40.0866 116.178 39.9571 116.155 39.6955H116.157ZM111.535 32.2314H114.71C114.827 32.2314 114.874 32.172 114.851 32.0545L113.193 22.3508C113.169 22.2794 113.134 22.2441 113.087 22.2441C113.04 22.2441 113.004 22.2794 112.982 22.3508L111.394 32.0545C111.394 32.172 111.441 32.2314 111.535 32.2314Z" fill="#F9F9F9"/>
<path d="M136.173 15.207H140.266C140.383 15.207 140.484 15.2484 140.566 15.3305C140.647 15.4139 140.688 15.5147 140.688 15.6341V39.6601C140.688 39.7789 140.647 39.8804 140.566 39.9618C140.483 40.0452 140.383 40.0866 140.266 40.0866H136.138C136.02 40.0866 135.921 40.0452 135.839 39.9618C135.756 39.8797 135.716 39.7789 135.716 39.6601V23.7015C135.716 23.6061 135.691 23.5587 135.645 23.5587C135.599 23.5587 135.55 23.5941 135.503 23.6655L132.752 28.5704C132.634 28.7606 132.539 28.856 132.47 28.856C132.4 28.856 132.304 28.7606 132.186 28.5704L129.435 23.6655C129.388 23.5941 129.34 23.5587 129.294 23.5587C129.249 23.5587 129.224 23.6061 129.224 23.7015V39.6601C129.224 39.7789 129.183 39.8804 129.1 39.9618C129.017 40.0452 128.918 40.0866 128.8 40.0866H124.673C124.555 40.0866 124.455 40.0452 124.374 39.9618C124.291 39.8797 124.25 39.7789 124.25 39.6601V15.6341C124.25 15.5153 124.291 15.4139 124.374 15.3305C124.455 15.2484 124.555 15.207 124.673 15.207H128.73C128.964 15.207 129.141 15.3025 129.259 15.4913L132.399 21.1423C132.47 21.2377 132.539 21.2377 132.61 21.1423L135.645 15.4913C135.738 15.3025 135.915 15.207 136.174 15.207H136.173Z" fill="#F9F9F9"/>
<path d="M156.693 38.3101C155.377 39.4953 153.672 40.0873 151.579 40.0873H144.91C144.792 40.0873 144.693 40.0459 144.611 39.9625C144.528 39.8804 144.488 39.7796 144.488 39.6608V15.6341C144.488 15.5153 144.528 15.4139 144.611 15.3305C144.694 15.2484 144.792 15.207 144.91 15.207H150.803C153.154 15.207 154.995 15.7749 156.323 16.9127C157.652 18.0505 158.318 19.7442 158.318 21.9958C158.318 24.2474 157.517 26.0465 155.917 27.1129C155.823 27.1843 155.813 27.2557 155.882 27.3272C157.741 28.6538 158.671 30.6211 158.671 33.2264C158.671 35.4306 158.011 37.1243 156.694 38.3095L156.693 38.3101ZM149.463 19.6855V25.2664C149.463 25.3852 149.52 25.4433 149.638 25.4433H150.907C151.707 25.4433 152.33 25.189 152.777 24.6792C153.224 24.1707 153.447 23.4539 153.447 22.529C153.447 21.5581 153.23 20.8113 152.795 20.2908C152.36 19.7689 151.73 19.5087 150.907 19.5087H149.638C149.52 19.5087 149.463 19.5681 149.463 19.6855ZM153.024 34.8987C153.471 34.3288 153.696 33.5247 153.696 32.4803C153.696 31.4359 153.471 30.6098 153.024 29.9925C152.578 29.3765 151.978 29.0689 151.226 29.0689H149.638C149.52 29.0689 149.463 29.1283 149.463 29.2457V35.5734C149.463 35.6922 149.52 35.7502 149.638 35.7502H151.191C151.966 35.7502 152.578 35.466 153.024 34.8981V34.8987Z" fill="#F9F9F9"/>
<path d="M161.939 39.9618C161.856 39.8797 161.816 39.7789 161.816 39.6601V15.6341C161.816 15.5153 161.856 15.4139 161.939 15.3305C162.022 15.2484 162.12 15.207 162.238 15.207H166.367C166.483 15.207 166.584 15.2484 166.666 15.3305C166.749 15.4139 166.79 15.5147 166.79 15.6341V35.6094C166.79 35.7269 166.848 35.7863 166.966 35.7863H174.12C174.238 35.7863 174.337 35.8276 174.419 35.9111C174.502 35.9945 174.543 36.0939 174.543 36.2127V39.6601C174.543 39.7789 174.502 39.8804 174.419 39.9618C174.336 40.0452 174.238 40.0866 174.12 40.0866H162.238C162.12 40.0866 162.02 40.0452 161.938 39.9618H161.939Z" fill="#F9F9F9"/>
<path d="M190.513 19.3832C190.43 19.4666 190.332 19.508 190.214 19.508H182.841C182.723 19.508 182.666 19.5674 182.666 19.6848V25.3005C182.666 25.4192 182.723 25.4786 182.841 25.4786H187.074C187.192 25.4786 187.292 25.52 187.374 25.6034C187.457 25.6868 187.498 25.7863 187.498 25.9051V29.3525C187.498 29.4713 187.457 29.5727 187.374 29.6541C187.291 29.7376 187.192 29.7789 187.074 29.7789H182.841C182.723 29.7789 182.666 29.8383 182.666 29.9558V35.6081C182.666 35.7255 182.723 35.7849 182.841 35.7849H190.214C190.332 35.7849 190.431 35.8263 190.513 35.9097C190.596 35.9931 190.637 36.0926 190.637 36.2114V39.6588C190.637 39.7776 190.596 39.879 190.513 39.9604C190.43 40.0439 190.332 40.0852 190.214 40.0852H178.113C177.995 40.0852 177.896 40.0439 177.814 39.9604C177.731 39.8784 177.691 39.7776 177.691 39.6588V15.6341C177.691 15.5153 177.731 15.4139 177.814 15.3305C177.897 15.2484 177.995 15.207 178.113 15.207H190.214C190.332 15.207 190.431 15.2484 190.513 15.3305C190.596 15.4139 190.637 15.5147 190.637 15.6341V19.0816C190.637 19.2004 190.596 19.3005 190.513 19.3832Z" fill="#F9F9F9"/>
<path d="M202.885 39.7316L200.169 29.9224C200.122 29.827 200.063 29.7796 199.994 29.7796H198.794C198.676 29.7796 198.618 29.839 198.618 29.9564V39.6601C198.618 39.7789 198.577 39.8804 198.494 39.9618C198.412 40.0452 198.311 40.0866 198.195 40.0866H194.066C193.949 40.0866 193.849 40.0452 193.767 39.9618C193.684 39.8797 193.645 39.7789 193.645 39.6601V15.6341C193.645 15.5153 193.684 15.4139 193.767 15.3305C193.85 15.2484 193.949 15.207 194.066 15.207H201.193C202.486 15.207 203.639 15.5207 204.65 16.1486C205.661 16.7779 206.443 17.6595 206.996 18.7973C207.548 19.9351 207.826 21.2377 207.826 22.7072C207.826 24.1767 207.56 25.3365 207.031 26.4029C206.502 27.4693 205.766 28.2988 204.826 28.8907C204.779 28.9147 204.744 28.9441 204.72 28.9801C204.697 29.0155 204.697 29.0575 204.72 29.1049L207.966 39.5894L208.001 39.7322C208.001 39.9685 207.871 40.0879 207.613 40.0879H203.38C203.122 40.0879 202.956 39.9691 202.885 39.7322V39.7316ZM198.617 19.6848V25.7629C198.617 25.8817 198.675 25.9411 198.793 25.9411H200.381C201.109 25.9411 201.704 25.6508 202.163 25.0696C202.621 24.4896 202.851 23.7135 202.851 22.7419C202.851 21.7703 202.62 20.9588 202.163 20.3775C201.704 19.7976 201.109 19.5073 200.381 19.5073H198.793C198.675 19.5073 198.617 19.5667 198.617 19.6842V19.6848Z" fill="#F9F9F9"/>
<path d="M102.996 26.7863C102.906 26.6949 102.815 26.6488 102.694 26.6488H96.4218C96.3006 26.6488 96.1946 26.6949 96.1198 26.7863C96.0893 26.817 96.0595 26.847 96.0595 26.8771C96.0138 26.9378 95.9992 26.9992 95.9992 27.0759V30.2438C95.9992 30.3198 96.0145 30.3953 96.0595 30.4566C96.0595 30.4873 96.09 30.5174 96.1198 30.5481C96.1953 30.6395 96.3013 30.6702 96.4218 30.6702H97.9638C98.0843 30.6702 98.1453 30.7309 98.1453 30.853V33.7012C98.1453 34.4019 97.9492 34.9798 97.5862 35.4216C97.2087 35.8634 96.694 36.0763 96.0595 36.0763H94.9388C94.3341 36.0763 93.8353 35.848 93.4578 35.4063C93.0802 34.9805 92.8981 34.4013 92.8981 33.6859V21.6098C92.8981 20.8944 93.0796 20.3152 93.4578 19.8894C93.8353 19.4476 94.3347 19.2194 94.9388 19.2194H96.031C96.6649 19.2201 97.1782 19.433 97.5558 19.8741C97.9187 20.3158 98.1148 20.8791 98.1148 21.5944V23.0112C98.1148 23.1333 98.1605 23.2394 98.236 23.3162C98.3115 23.4076 98.4175 23.4376 98.538 23.4376H102.664C102.786 23.4376 102.876 23.4076 102.967 23.3162C103.042 23.2394 103.088 23.1333 103.088 23.0112V21.6712C103.088 19.6298 102.438 18.0169 101.153 16.783C99.8601 15.5557 98.1605 14.9338 96.0595 14.9278V14.9258H94.9388C92.8226 14.9258 91.1296 15.5351 89.8453 16.7529C88.561 17.9715 87.9258 19.6011 87.9258 21.6412V33.6565C87.9258 35.6966 88.561 37.3268 89.8453 38.5447C91.1303 39.7626 92.8232 40.3726 94.9388 40.3726H96.0595C98.1757 40.3726 99.8833 39.7633 101.183 38.5447C102.468 37.3268 103.118 35.6966 103.118 33.6565V27.0779C103.118 26.9712 103.073 26.8644 102.997 26.789L102.996 26.7863Z" fill="#F9F9F9"/>
<path d="M12.985 10.7485C12.0822 10.7485 11.3477 10.0084 11.3477 9.09887C11.3477 8.18929 12.0822 7.44922 12.985 7.44922H17.1499C18.0527 7.44922 18.7872 8.18929 18.7872 9.09887C18.7872 10.0084 18.0527 10.7485 17.1499 10.7485H12.985Z" fill="#40B991"/>
<path d="M4.77558 55.8799C1.91951 55.8799 0 54.2356 0 51.7878V5.56957C0 2.4985 2.47986 0 5.52802 0H25.3914C28.0243 0 30.167 2.15816 30.167 4.81148L30.1431 5.54087H30.167V10.4912C30.167 10.5886 30.0888 10.6667 29.9928 10.6667H26.3293C26.2333 10.6667 26.1551 10.5879 26.1551 10.4912V5.14314L26.1657 4.80814C26.1485 4.36703 25.8014 4.03137 25.3907 4.03137H4.95906C4.4305 4.03137 4.00063 4.46447 4.00063 4.99633V51.8372L4.38678 51.8465C4.51925 51.8499 4.65503 51.8499 4.73849 51.8499H24.6396C25.4815 51.8499 26.167 51.1592 26.167 50.311V45.4274C26.167 45.3313 26.2452 45.2526 26.3412 45.2526H29.9941C30.0901 45.2526 30.1683 45.3313 30.1683 45.4274V50.8842C30.1683 53.639 27.9435 55.8806 25.2093 55.8806H4.77558V55.8799Z" fill="#40B991"/>
<path d="M38.9567 45.4238C38.9911 45.3884 39.0335 45.3711 39.0832 45.3711H40.8265C40.8762 45.3711 40.9179 45.3884 40.953 45.4238C40.9875 45.4592 41.0054 45.5012 41.0054 45.5513V55.6994C41.0054 55.7495 40.9881 55.7922 40.953 55.8276C40.9179 55.8623 40.8762 55.8796 40.8265 55.8796H39.0832C39.0335 55.8796 38.9911 55.8623 38.9567 55.8276C38.9216 55.7922 38.9044 55.7495 38.9044 55.6994V51.6013C38.9044 51.5513 38.8792 51.5259 38.8302 51.5259H37.3399C37.2902 51.5259 37.265 51.5513 37.265 51.6013V55.6994C37.265 55.7495 37.2478 55.7922 37.2127 55.8276C37.1783 55.8623 37.1359 55.8796 37.0862 55.8796H35.3429C35.2932 55.8796 35.2508 55.8623 35.2157 55.8276C35.1813 55.7922 35.1641 55.7495 35.1641 55.6994V45.5513C35.1641 45.5012 35.1813 45.4592 35.2157 45.4238C35.2502 45.3884 35.2926 45.3711 35.3429 45.3711H37.0862C37.1359 45.3711 37.1783 45.3884 37.2127 45.4238C37.2472 45.4592 37.265 45.5012 37.265 45.5513V49.6347C37.265 49.6847 37.2902 49.7094 37.3399 49.7094H38.8302C38.8799 49.7094 38.9044 49.6847 38.9044 49.6347V45.5513C38.9044 45.5012 38.9216 45.4592 38.9567 45.4238Z" fill="#40B991"/>
<path d="M48.2839 47.1362C48.2488 47.1716 48.2071 47.1882 48.1568 47.1882H45.043C44.9933 47.1882 44.9682 47.2136 44.9682 47.2637V49.636C44.9682 49.6861 44.9933 49.7108 45.043 49.7108H46.8307C46.8804 49.7108 46.9228 49.7281 46.9572 49.7635C46.9917 49.7989 47.0096 49.8409 47.0096 49.8909V51.3471C47.0096 51.3971 46.9923 51.4392 46.9572 51.4745C46.9228 51.5099 46.8804 51.5266 46.8307 51.5266H45.043C44.9933 51.5266 44.9682 51.5519 44.9682 51.602V53.989C44.9682 54.0391 44.9933 54.0638 45.043 54.0638H48.1568C48.2064 54.0638 48.2488 54.0811 48.2839 54.1165C48.3184 54.1519 48.3356 54.1939 48.3356 54.244V55.6994C48.3356 55.7495 48.3184 55.7922 48.2839 55.8276C48.2488 55.8623 48.2071 55.8796 48.1568 55.8796H43.046C42.9963 55.8796 42.954 55.8623 42.9188 55.8276C42.8844 55.7922 42.8672 55.7495 42.8672 55.6994V45.5513C42.8672 45.5012 42.8844 45.4592 42.9188 45.4238C42.9533 45.3884 42.9957 45.3711 43.046 45.3711H48.1568C48.2064 45.3711 48.2488 45.3884 48.2839 45.4238C48.3184 45.4592 48.3356 45.5012 48.3356 45.5513V47.0074C48.3356 47.0574 48.3184 47.0995 48.2839 47.1349V47.1362Z" fill="#40B991"/>
<path d="M50.0399 55.8276C50.0055 55.7922 49.9883 55.7495 49.9883 55.6994V45.5513C49.9883 45.5012 50.0055 45.4592 50.0399 45.4238C50.0744 45.3884 50.1168 45.3711 50.1671 45.3711H51.9104C51.9601 45.3711 52.0025 45.3884 52.0369 45.4238C52.0714 45.4592 52.0893 45.5012 52.0893 45.5513V53.9884C52.0893 54.0384 52.1144 54.0631 52.1641 54.0631H55.2931C55.3428 54.0631 55.3845 54.0805 55.4196 54.1158C55.454 54.1512 55.4719 54.1933 55.4719 54.2433V55.6988C55.4719 55.7488 55.4547 55.7915 55.4196 55.8269C55.3845 55.8616 55.3428 55.8789 55.2931 55.8789H50.1671C50.1174 55.8789 50.0751 55.8616 50.0399 55.8269V55.8276Z" fill="#40B991"/>
<path d="M61.5664 45.7622C61.9929 46.0325 62.3241 46.4102 62.5573 46.896C62.7904 47.3818 62.9076 47.9344 62.9076 48.5543C62.9076 49.4852 62.6593 50.2313 62.1625 50.7912C61.6657 51.3518 61.0153 51.6314 60.2105 51.6314H59.0931C59.0435 51.6314 59.019 51.6568 59.019 51.7068V55.6995C59.019 55.7495 59.0017 55.7922 58.9666 55.8276C58.9315 55.8623 58.8898 55.8796 58.8401 55.8796H57.0968C57.0471 55.8796 57.0047 55.8623 56.9703 55.8276C56.9352 55.7922 56.918 55.7495 56.918 55.6995V45.5366C56.918 45.4866 56.9352 45.4445 56.9703 45.4092C57.0047 45.3738 57.0471 45.3564 57.0968 45.3564H60.1065C60.653 45.3564 61.1398 45.4919 61.567 45.7622H61.5664ZM60.5159 49.6127C60.7099 49.3678 60.8066 49.0301 60.8066 48.5997C60.8066 48.1693 60.7099 47.8142 60.5159 47.564C60.3225 47.3137 60.0661 47.1883 59.7489 47.1883H59.0931C59.0435 47.1883 59.019 47.2136 59.019 47.2637V49.9057C59.019 49.9557 59.0435 49.9811 59.0931 49.9811H59.7489C60.0668 49.9811 60.3225 49.8583 60.5159 49.6127Z" fill="#40B991"/>
<path d="M73.4328 47.1355C73.3983 47.1709 73.3559 47.1876 73.3062 47.1876H70.2071C70.1574 47.1876 70.1322 47.2129 70.1322 47.263V49.6354C70.1322 49.6854 70.1574 49.7101 70.2071 49.7101H71.9802C72.0299 49.7101 72.0716 49.7275 72.1067 49.7628C72.1412 49.7982 72.159 49.8402 72.159 49.8903V51.3464C72.159 51.3965 72.1418 51.4385 72.1067 51.4739C72.0716 51.5092 72.0299 51.5259 71.9802 51.5259H70.2071C70.1574 51.5259 70.1322 51.5513 70.1322 51.6013V55.6994C70.1322 55.7495 70.115 55.7922 70.0799 55.8276C70.0455 55.8623 70.0031 55.8796 69.9534 55.8796H68.2101C68.1604 55.8796 68.118 55.8623 68.0829 55.8276C68.0485 55.7922 68.0312 55.7495 68.0312 55.6994V45.5513C68.0312 45.5012 68.0485 45.4592 68.0829 45.4238C68.1174 45.3884 68.1597 45.3711 68.2101 45.3711H73.3056C73.3553 45.3711 73.3977 45.3884 73.4321 45.4238C73.4665 45.4592 73.4844 45.5012 73.4844 45.5513V47.0074C73.4844 47.0574 73.4672 47.0995 73.4321 47.1349L73.4328 47.1355Z" fill="#40B991"/>
<path d="M75.5732 55.1903C75.0268 54.6497 74.7539 53.929 74.7539 53.0281V48.2239C74.7539 47.323 75.0268 46.603 75.5732 46.0625C76.1197 45.5219 76.8496 45.251 77.7637 45.251C78.6777 45.251 79.4103 45.5219 79.9613 46.0625C80.5131 46.6023 80.7886 47.323 80.7886 48.2239V53.0281C80.7886 53.929 80.5131 54.649 79.9613 55.1903C79.4103 55.7308 78.6777 56.0011 77.7637 56.0011C76.8496 56.0011 76.1197 55.7308 75.5732 55.1903ZM78.434 53.8916C78.6029 53.6961 78.6876 53.4385 78.6876 53.1182V48.1345C78.6876 47.8142 78.6029 47.5566 78.434 47.3611C78.2651 47.1656 78.0412 47.0681 77.7637 47.0681C77.4861 47.0681 77.2642 47.1656 77.1006 47.3611C76.9364 47.5566 76.8549 47.8142 76.8549 48.1345V53.1182C76.8549 53.4385 76.937 53.6961 77.1006 53.8916C77.2649 54.0865 77.4855 54.1839 77.7637 54.1839C78.0418 54.1839 78.2651 54.0865 78.434 53.8916Z" fill="#40B991"/>
<path d="M86.4508 55.7304L85.3036 51.587C85.2837 51.5469 85.2586 51.5269 85.2294 51.5269H84.7227C84.673 51.5269 84.6479 51.5523 84.6479 51.6023V55.7004C84.6479 55.7504 84.6306 55.7932 84.5955 55.8285C84.5611 55.8632 84.5187 55.8806 84.469 55.8806H82.7257C82.676 55.8806 82.6336 55.8632 82.5985 55.8285C82.5641 55.7932 82.5469 55.7504 82.5469 55.7004V45.5522C82.5469 45.5022 82.5641 45.4602 82.5985 45.4248C82.633 45.3894 82.6754 45.3721 82.7257 45.3721H85.7355C86.2819 45.3721 86.7687 45.5049 87.1959 45.7705C87.6225 46.0354 87.9537 46.4091 88.1868 46.8889C88.42 47.3694 88.5372 47.9193 88.5372 48.5399C88.5372 49.1605 88.4253 49.651 88.2021 50.1015C87.9788 50.5519 87.6675 50.9016 87.2708 51.1525C87.2509 51.1625 87.2363 51.1752 87.2264 51.1899C87.2165 51.2046 87.2165 51.2226 87.2264 51.2426L88.5975 55.671L88.6121 55.7311C88.6121 55.8305 88.5571 55.8812 88.4478 55.8812H86.6601C86.5508 55.8812 86.4813 55.8312 86.4515 55.7311L86.4508 55.7304ZM84.6479 47.2633V49.8299C84.6479 49.8799 84.673 49.9053 84.7227 49.9053H85.393C85.701 49.9053 85.952 49.7825 86.1454 49.5376C86.3389 49.292 86.4362 48.9643 86.4362 48.5539C86.4362 48.1435 86.3395 47.8012 86.1454 47.5563C85.9514 47.3107 85.701 47.1879 85.393 47.1879H84.7227C84.673 47.1879 84.6479 47.2132 84.6479 47.2633Z" fill="#40B991"/>
<path d="M98.3711 45.7622C98.7976 46.0325 99.1288 46.4102 99.3619 46.896C99.5951 47.3818 99.7123 47.9344 99.7123 48.5543C99.7123 49.4852 99.464 50.2313 98.9672 50.7912C98.4704 51.3518 97.82 51.6314 97.0152 51.6314H95.8978C95.8482 51.6314 95.8236 51.6568 95.8236 51.7068V55.6995C95.8236 55.7495 95.8064 55.7922 95.7713 55.8276C95.7362 55.8623 95.6945 55.8796 95.6448 55.8796H93.9015C93.8518 55.8796 93.8094 55.8623 93.775 55.8276C93.7399 55.7922 93.7227 55.7495 93.7227 55.6995V45.5366C93.7227 45.4866 93.7399 45.4445 93.775 45.4092C93.8094 45.3738 93.8518 45.3564 93.9015 45.3564H96.9112C97.4577 45.3564 97.9445 45.4919 98.3717 45.7622H98.3711ZM97.3206 49.6127C97.5146 49.3678 97.6113 49.0301 97.6113 48.5997C97.6113 48.1693 97.5146 47.8142 97.3206 47.564C97.1272 47.3137 96.8708 47.1883 96.5536 47.1883H95.8978C95.8482 47.1883 95.8236 47.2136 95.8236 47.2637V49.9057C95.8236 49.9557 95.8482 49.9811 95.8978 49.9811H96.5536C96.8715 49.9811 97.1272 49.8583 97.3206 49.6127Z" fill="#40B991"/>
<path d="M105.166 55.7304L104.018 51.587C103.999 51.5469 103.973 51.5269 103.944 51.5269H103.438C103.388 51.5269 103.363 51.5523 103.363 51.6023V55.7004C103.363 55.7504 103.345 55.7932 103.31 55.8285C103.276 55.8632 103.234 55.8806 103.184 55.8806H101.441C101.391 55.8806 101.348 55.8632 101.313 55.8285C101.279 55.7932 101.262 55.7504 101.262 55.7004V45.5522C101.262 45.5022 101.279 45.4602 101.313 45.4248C101.348 45.3894 101.39 45.3721 101.441 45.3721H104.45C104.997 45.3721 105.484 45.5049 105.911 45.7705C106.337 46.0354 106.669 46.4091 106.902 46.8889C107.135 47.3694 107.252 47.9193 107.252 48.5399C107.252 49.1605 107.14 49.651 106.917 50.1015C106.694 50.5519 106.382 50.9016 105.986 51.1525C105.966 51.1625 105.951 51.1752 105.941 51.1899C105.931 51.2046 105.931 51.2226 105.941 51.2426L107.312 55.671L107.327 55.7311C107.327 55.8305 107.272 55.8812 107.163 55.8812H105.375C105.266 55.8812 105.196 55.8312 105.166 55.7311L105.166 55.7304ZM103.363 47.2633V49.8299C103.363 49.8799 103.388 49.9053 103.438 49.9053H104.108C104.416 49.9053 104.667 49.7825 104.86 49.5376C105.054 49.292 105.151 48.9643 105.151 48.5539C105.151 48.1435 105.054 47.8012 104.86 47.5563C104.666 47.3107 104.416 47.1879 104.108 47.1879H103.438C103.388 47.1879 103.363 47.2132 103.363 47.2633Z" fill="#40B991"/>
<path d="M109.546 55.1903C108.999 54.6497 108.727 53.929 108.727 53.0281V48.2239C108.727 47.323 108.999 46.603 109.546 46.0625C110.092 45.5219 110.822 45.251 111.736 45.251C112.65 45.251 113.383 45.5219 113.934 46.0625C114.486 46.6023 114.761 47.323 114.761 48.2239V53.0281C114.761 53.929 114.486 54.649 113.934 55.1903C113.383 55.7308 112.65 56.0011 111.736 56.0011C110.822 56.0011 110.092 55.7308 109.546 55.1903ZM112.407 53.8916C112.576 53.6961 112.66 53.4385 112.66 53.1182V48.1345C112.66 47.8142 112.576 47.5566 112.407 47.3611C112.238 47.1656 112.014 47.0681 111.736 47.0681C111.459 47.0681 111.237 47.1656 111.073 47.3611C110.909 47.5566 110.828 47.8142 110.828 48.1345V53.1182C110.828 53.4385 110.91 53.6961 111.073 53.8916C111.238 54.0865 111.458 54.1839 111.736 54.1839C112.014 54.1839 112.238 54.0865 112.407 53.8916Z" fill="#40B991"/>
<path d="M121.671 55.1289C121.115 55.6294 120.395 55.8796 119.511 55.8796H116.694C116.645 55.8796 116.602 55.8623 116.567 55.8276C116.533 55.7922 116.516 55.7495 116.516 55.6994V45.5513C116.516 45.5012 116.533 45.4592 116.567 45.4238C116.602 45.3884 116.644 45.3711 116.694 45.3711H119.182C120.176 45.3711 120.953 45.612 121.514 46.0925C122.075 46.573 122.356 47.2883 122.356 48.2386C122.356 49.1889 122.018 49.9503 121.343 50.4008C121.303 50.4315 121.298 50.4608 121.328 50.4909C122.113 51.0521 122.505 51.8823 122.505 52.9834C122.505 53.9143 122.227 54.6297 121.671 55.1295L121.671 55.1289ZM118.617 47.263V49.6193C118.617 49.6694 118.642 49.6948 118.691 49.6948H119.228C119.566 49.6948 119.829 49.5873 120.017 49.3718C120.206 49.1569 120.3 48.8539 120.3 48.4635C120.3 48.0731 120.208 47.7381 120.025 47.5179C119.841 47.2984 119.575 47.1876 119.227 47.1876H118.691C118.641 47.1876 118.616 47.2129 118.616 47.263H118.617ZM120.121 53.6881C120.31 53.4478 120.404 53.1075 120.404 52.6671C120.404 52.2266 120.31 51.8769 120.121 51.616C119.933 51.3557 119.679 51.2249 119.361 51.2249H118.691C118.641 51.2249 118.616 51.2503 118.616 51.3004V53.9724C118.616 54.0224 118.641 54.0478 118.691 54.0478H119.347C119.674 54.0478 119.933 53.9277 120.121 53.6874V53.6881Z" fill="#40B991"/>
<path d="M124.169 55.8276C124.134 55.7922 124.117 55.7495 124.117 55.6994V45.5513C124.117 45.5012 124.134 45.4592 124.169 45.4238C124.203 45.3884 124.246 45.3711 124.296 45.3711H126.039C126.089 45.3711 126.131 45.3884 126.166 45.4238C126.2 45.4592 126.218 45.5012 126.218 45.5513V53.9884C126.218 54.0384 126.243 54.0631 126.293 54.0631H129.422C129.472 54.0631 129.513 54.0805 129.548 54.1158C129.583 54.1512 129.601 54.1933 129.601 54.2433V55.6988C129.601 55.7488 129.584 55.7915 129.548 55.8269C129.513 55.8616 129.472 55.8789 129.422 55.8789H124.296C124.246 55.8789 124.204 55.8616 124.169 55.8269V55.8276Z" fill="#40B991"/>
<path d="M136.475 47.1362C136.44 47.1716 136.399 47.1882 136.348 47.1882H133.234C133.185 47.1882 133.16 47.2136 133.16 47.2637V49.636C133.16 49.6861 133.185 49.7108 133.234 49.7108H135.022C135.072 49.7108 135.114 49.7281 135.149 49.7635C135.183 49.7989 135.201 49.8409 135.201 49.8909V51.3471C135.201 51.3971 135.184 51.4392 135.149 51.4745C135.114 51.5099 135.072 51.5266 135.022 51.5266H133.234C133.185 51.5266 133.16 51.5519 133.16 51.602V53.989C133.16 54.0391 133.185 54.0638 133.234 54.0638H136.348C136.398 54.0638 136.44 54.0811 136.475 54.1165C136.51 54.1519 136.527 54.1939 136.527 54.244V55.6994C136.527 55.7495 136.51 55.7922 136.475 55.8276C136.44 55.8623 136.399 55.8796 136.348 55.8796H131.237C131.188 55.8796 131.145 55.8623 131.11 55.8276C131.076 55.7922 131.059 55.7495 131.059 55.6994V45.5513C131.059 45.5012 131.076 45.4592 131.11 45.4238C131.145 45.3884 131.187 45.3711 131.237 45.3711H136.348C136.398 45.3711 136.44 45.3884 136.475 45.4238C136.51 45.4592 136.527 45.5012 136.527 45.5513V47.0074C136.527 47.0574 136.51 47.0995 136.475 47.1349V47.1362Z" fill="#40B991"/>
<path d="M143.174 45.3711H144.902C144.952 45.3711 144.994 45.3884 145.029 45.4238C145.064 45.4592 145.081 45.5012 145.081 45.5513V55.6994C145.081 55.7495 145.064 55.7922 145.029 55.8276C144.994 55.8623 144.952 55.8796 144.902 55.8796H143.159C143.109 55.8796 143.067 55.8623 143.032 55.8276C142.997 55.7922 142.98 55.7495 142.98 55.6994V48.9593C142.98 48.9193 142.97 48.8993 142.95 48.8993C142.93 48.8993 142.91 48.914 142.89 48.9447L141.729 51.0161C141.679 51.0962 141.639 51.1362 141.609 51.1362C141.58 51.1362 141.54 51.0962 141.49 51.0161L140.328 48.9447C140.308 48.914 140.288 48.8993 140.268 48.8993C140.248 48.8993 140.238 48.9193 140.238 48.9593V55.6994C140.238 55.7495 140.221 55.7922 140.186 55.8276C140.151 55.8623 140.109 55.8796 140.059 55.8796H138.316C138.266 55.8796 138.223 55.8623 138.189 55.8276C138.154 55.7922 138.137 55.7495 138.137 55.6994V45.5513C138.137 45.5012 138.154 45.4592 138.189 45.4238C138.223 45.3884 138.266 45.3711 138.316 45.3711H140.029C140.128 45.3711 140.203 45.4118 140.252 45.4919L141.578 47.8783C141.608 47.9183 141.638 47.9183 141.668 47.8783L142.949 45.4919C142.988 45.4118 143.063 45.3711 143.172 45.3711H143.174Z" fill="#40B991"/>
<path d="M151.183 55.2263C150.642 54.7111 150.371 54.0231 150.371 53.1622V48.0885C150.371 47.2276 150.642 46.5396 151.183 46.0244C151.724 45.5086 152.442 45.251 153.336 45.251C154.231 45.251 154.951 45.5112 155.497 46.0318C156.043 46.5529 156.316 47.243 156.316 48.1032V48.6737C156.316 48.7238 156.299 48.7665 156.265 48.8012C156.23 48.8366 156.187 48.8539 156.138 48.8539H154.394C154.345 48.8539 154.303 48.8366 154.268 48.8012C154.233 48.7665 154.216 48.7238 154.216 48.6737V48.0731C154.216 47.7728 154.137 47.5306 153.978 47.3451C153.819 47.1595 153.605 47.0668 153.336 47.0668C153.068 47.0668 152.87 47.1595 152.711 47.3451C152.552 47.5306 152.473 47.7722 152.473 48.0731V53.1769C152.473 53.4772 152.552 53.7201 152.711 53.9056C152.87 54.0911 153.078 54.1832 153.336 54.1832C153.595 54.1832 153.819 54.0911 153.978 53.9056C154.137 53.7201 154.216 53.4779 154.216 53.1769V51.9764C154.216 51.9263 154.191 51.901 154.141 51.901H153.486C153.436 51.901 153.394 51.8843 153.359 51.8489C153.325 51.8135 153.307 51.7715 153.307 51.7214V50.3848C153.307 50.3354 153.325 50.2927 153.359 50.2573C153.394 50.2226 153.436 50.2053 153.486 50.2053H156.138C156.187 50.2053 156.23 50.2226 156.265 50.2573C156.299 50.2927 156.316 50.3354 156.316 50.3848V53.1622C156.316 54.0231 156.043 54.7118 155.497 55.2263C154.951 55.7421 154.231 55.9997 153.336 55.9997C152.442 55.9997 151.724 55.7421 151.183 55.2263Z" fill="#40B991"/>
<path d="M162.111 55.7154L161.873 54.274C161.873 54.2239 161.843 54.1986 161.783 54.1986H159.891C159.832 54.1986 159.802 54.2239 159.802 54.274L159.564 55.7154C159.554 55.8256 159.489 55.8803 159.369 55.8803H157.626C157.497 55.8803 157.447 55.8149 157.477 55.6847L159.668 45.5366C159.687 45.4265 159.752 45.3711 159.861 45.3711H161.873C161.982 45.3711 162.046 45.4265 162.067 45.5366L164.242 55.6847L164.256 55.7448C164.256 55.8349 164.202 55.8796 164.093 55.8796H162.304C162.185 55.8796 162.12 55.8249 162.11 55.7148L162.111 55.7154ZM160.159 52.5623H161.5C161.55 52.5623 161.57 52.5369 161.559 52.4869L160.859 48.3888C160.849 48.3587 160.834 48.3434 160.815 48.3434C160.796 48.3434 160.78 48.3587 160.77 48.3888L160.1 52.4869C160.1 52.5369 160.119 52.5623 160.159 52.5623Z" fill="#40B991"/>
<path d="M170.695 45.3711H172.423C172.473 45.3711 172.516 45.3884 172.551 45.4238C172.585 45.4592 172.602 45.5012 172.602 45.5513V55.6994C172.602 55.7495 172.585 55.7922 172.551 55.8276C172.516 55.8623 172.473 55.8796 172.423 55.8796H170.68C170.63 55.8796 170.589 55.8623 170.554 55.8276C170.519 55.7922 170.502 55.7495 170.502 55.6994V48.9593C170.502 48.9193 170.492 48.8993 170.471 48.8993C170.451 48.8993 170.432 48.914 170.413 48.9447L169.251 51.0161C169.201 51.0962 169.161 51.1362 169.132 51.1362C169.102 51.1362 169.061 51.0962 169.012 51.0161L167.85 48.9447C167.831 48.914 167.81 48.8993 167.791 48.8993C167.772 48.8993 167.761 48.9193 167.761 48.9593V55.6994C167.761 55.7495 167.744 55.7922 167.709 55.8276C167.674 55.8623 167.632 55.8796 167.582 55.8796H165.839C165.789 55.8796 165.747 55.8623 165.712 55.8276C165.677 55.7922 165.66 55.7495 165.66 55.6994V45.5513C165.66 45.5012 165.677 45.4592 165.712 45.4238C165.747 45.3884 165.789 45.3711 165.839 45.3711H167.552C167.651 45.3711 167.726 45.4118 167.776 45.4919L169.101 47.8783C169.132 47.9183 169.161 47.9183 169.191 47.8783L170.471 45.4919C170.511 45.4118 170.586 45.3711 170.695 45.3711H170.695Z" fill="#40B991"/>
<path d="M179.62 55.1289C179.064 55.6294 178.344 55.8796 177.459 55.8796H174.644C174.594 55.8796 174.552 55.8623 174.517 55.8276C174.482 55.7922 174.465 55.7495 174.465 55.6994V45.5513C174.465 45.5012 174.482 45.4592 174.517 45.4238C174.552 45.3884 174.594 45.3711 174.644 45.3711H177.131C178.125 45.3711 178.902 45.612 179.464 46.0925C180.025 46.573 180.305 47.2883 180.305 48.2386C180.305 49.1889 179.968 49.9503 179.292 50.4008C179.252 50.4315 179.248 50.4608 179.278 50.4909C180.062 51.0521 180.455 51.8823 180.455 52.9834C180.455 53.9143 180.176 54.6297 179.621 55.1295L179.62 55.1289ZM176.565 47.263V49.6193C176.565 49.6694 176.59 49.6948 176.64 49.6948H177.177C177.514 49.6948 177.777 49.5873 177.966 49.3718C178.155 49.1569 178.249 48.8539 178.249 48.4635C178.249 48.0731 178.157 47.7381 177.973 47.5179C177.789 47.2984 177.524 47.1876 177.176 47.1876H176.639C176.59 47.1876 176.565 47.2129 176.565 47.263H176.565ZM178.071 53.6881C178.259 53.4478 178.354 53.1075 178.354 52.6671C178.354 52.2266 178.259 51.8769 178.071 51.616C177.881 51.3557 177.628 51.2249 177.31 51.2249H176.64C176.59 51.2249 176.565 51.2503 176.565 51.3004V53.9724C176.565 54.0224 176.59 54.0478 176.64 54.0478H177.296C177.624 54.0478 177.881 53.9277 178.071 53.6874V53.6881Z" fill="#40B991"/>
<path d="M182.114 55.8276C182.079 55.7922 182.062 55.7495 182.062 55.6994V45.5513C182.062 45.5012 182.079 45.4592 182.114 45.4238C182.149 45.3884 182.191 45.3711 182.241 45.3711H183.984C184.034 45.3711 184.076 45.3884 184.11 45.4238C184.146 45.4592 184.163 45.5012 184.163 45.5513V53.9884C184.163 54.0384 184.188 54.0631 184.238 54.0631H187.367C187.416 54.0631 187.458 54.0805 187.493 54.1158C187.528 54.1512 187.545 54.1933 187.545 54.2433V55.6988C187.545 55.7488 187.528 55.7915 187.493 55.8269C187.458 55.8616 187.416 55.8789 187.367 55.8789H182.241C182.191 55.8789 182.149 55.8616 182.114 55.8269V55.8276Z" fill="#40B991"/>
<path d="M189.059 55.8276C189.024 55.7922 189.008 55.7495 189.008 55.6994V45.5513C189.008 45.5012 189.024 45.4592 189.059 45.4238C189.094 45.3884 189.136 45.3711 189.186 45.3711H190.929C190.979 45.3711 191.021 45.3884 191.056 45.4238C191.091 45.4592 191.108 45.5012 191.108 45.5513V55.6994C191.108 55.7495 191.091 55.7922 191.056 55.8276C191.021 55.8623 190.979 55.8796 190.929 55.8796H189.186C189.136 55.8796 189.094 55.8623 189.059 55.8276Z" fill="#40B991"/>
<path d="M197.344 45.4245C197.379 45.3891 197.421 45.3718 197.47 45.3718H199.199C199.248 45.3718 199.291 45.3891 199.326 45.4245C199.36 45.4598 199.377 45.5019 199.377 45.5519V55.7001C199.377 55.7501 199.36 55.7929 199.326 55.8282C199.291 55.8629 199.248 55.8803 199.199 55.8803H197.232C197.133 55.8803 197.068 55.8302 197.038 55.7301L195.191 49.9203C195.181 49.8903 195.163 49.8783 195.139 49.8829C195.114 49.8876 195.102 49.9056 195.102 49.935L195.116 55.6994C195.116 55.7495 195.099 55.7922 195.064 55.8276C195.029 55.8623 194.987 55.8796 194.938 55.8796H193.209C193.16 55.8796 193.117 55.8623 193.083 55.8276C193.048 55.7922 193.031 55.7495 193.031 55.6994V45.5513C193.031 45.5012 193.048 45.4592 193.083 45.4238C193.117 45.3884 193.16 45.3711 193.209 45.3711H195.161C195.261 45.3711 195.326 45.4211 195.355 45.5219L197.218 51.3311C197.228 51.3618 197.246 51.3738 197.27 51.3691C197.295 51.3638 197.307 51.3464 197.307 51.3164L197.293 45.5519C197.293 45.5019 197.309 45.4598 197.344 45.4245H197.344Z" fill="#40B991"/>
<path d="M201.949 55.2263C201.408 54.7111 201.137 54.0231 201.137 53.1622V48.0885C201.137 47.2276 201.408 46.5396 201.949 46.0244C202.49 45.5086 203.208 45.251 204.102 45.251C204.996 45.251 205.717 45.5112 206.263 46.0318C206.808 46.5529 207.082 47.243 207.082 48.1032V48.6737C207.082 48.7238 207.065 48.7665 207.03 48.8012C206.995 48.8366 206.953 48.8539 206.904 48.8539H205.16C205.11 48.8539 205.068 48.8366 205.033 48.8012C204.999 48.7665 204.982 48.7238 204.982 48.6737V48.0731C204.982 47.7728 204.902 47.5306 204.743 47.3451C204.584 47.1595 204.371 47.0668 204.102 47.0668C203.833 47.0668 203.636 47.1595 203.477 47.3451C203.318 47.5306 203.238 47.7722 203.238 48.0731V53.1769C203.238 53.4772 203.318 53.7201 203.477 53.9056C203.636 54.0911 203.844 54.1832 204.102 54.1832C204.36 54.1832 204.584 54.0911 204.743 53.9056C204.902 53.7201 204.982 53.4779 204.982 53.1769V51.9764C204.982 51.9263 204.957 51.901 204.907 51.901H204.252C204.202 51.901 204.16 51.8843 204.125 51.8489C204.09 51.8135 204.073 51.7715 204.073 51.7214V50.3848C204.073 50.3354 204.09 50.2927 204.125 50.2573C204.16 50.2226 204.202 50.2053 204.252 50.2053H206.904C206.953 50.2053 206.995 50.2226 207.03 50.2573C207.065 50.2927 207.082 50.3354 207.082 50.3848V53.1622C207.082 54.0231 206.808 54.7118 206.263 55.2263C205.717 55.7421 204.996 55.9997 204.102 55.9997C203.208 55.9997 202.49 55.7421 201.949 55.2263Z" fill="#40B991"/>
</g>
<defs>
<clipPath id="clip0_4682_4598">
<rect width="208" height="56" fill="white"/>
</clipPath>
</defs>
</svg>
