<svg version="1.2" xmlns="http://www.w3.org/2000/svg" viewBox="0 0 236 46" width="236" height="46">
	<style>
		.s0 { fill: #00a4fe } 
		.s1 { fill: #f54a55 } 
		.s2 { fill: #ffffff } 
	</style>
	<path class="s0" d="m9.11 32l18.44-17.18 1.71 7.99 13.97-10.21 0.48-2.28q1.95-9.32-9.46-9.32h-29.25l9.08 7.29z"/>
	<path class="s1" d="m40.6 22l-14.45 13.42-1.72-7.99-24.43 18.57h30.13q11.39 0 13.32-9.27l1.3-6.28c0.97-4.61-1.02-7.23-4.15-8.45z"/>
	<path class="s2" d="m72.53 33.5c0-2.25-0.9-4.03-3.05-4.93 1.5-0.84 2.37-2.65 2.37-4.52 0-3.74-2.65-5.86-7.07-5.86h-7.78v21.82h8.03c4.17 0 7.5-2.09 7.5-6.51zm-7.62-2.53c1.4 0 2.15 0.9 2.15 2.21 0 1.25-0.78 2.25-2.18 2.25h-2.59v-4.46zm-0.4-8.23c1.31 0 1.93 0.78 1.93 1.93 0 1.18-0.66 2.03-1.87 2.03h-2.27v-3.96zm24.93 10.44q0.04-0.56 0.03-1.03c0-5.58-2.83-8.91-8.03-8.91-4.79 0-8.03 3.83-8.03 8.63 0 4.84 3.3 8.55 8.69 8.55 4.23 0 6.47-2.65 6.94-3.62l-3.43-2.65c-0.31 0.47-1.46 1.75-3.42 1.75-1.93 0-3.33-1.25-3.46-2.72zm-7.9-5.73c1.62 0 2.58 1.12 2.64 2.43h-5.29c0.12-1.16 0.93-2.43 2.65-2.43zm15.02-7.27h-5.2v3.46h-1.58v4.21h1.58v5.77c0 4.86 2.25 6.64 6.11 6.64 1.3 0 1.99-0.19 1.99-0.19v-4.45c-0.34 0.03-0.59 0.03-0.87 0.03-1.06 0-2.03-0.35-2.03-1.78v-6.02h2.77v-4.21h-2.77zm10.33 0h-5.2v3.46h-1.59v4.21h1.59v5.77c0 4.87 2.24 6.64 6.1 6.64 1.31 0 1.99-0.18 1.99-0.18v-4.46c-0.34 0.03-0.59 0.03-0.87 0.03-1.06 0-2.02-0.35-2.02-1.78v-6.02h2.77v-4.21h-2.77zm9.88 3.46h-5.2v16.37h5.2zm-2.64-0.99c1.65 0 2.92-1.19 2.92-2.81 0-1.65-1.27-2.84-2.92-2.84-1.66 0-2.9 1.19-2.9 2.84 0 1.62 1.24 2.81 2.9 2.81zm14.59 17.37h5.2v-9.08c0-3.33-0.5-7.7-5.61-7.7-2.05 0-3.48 1.12-4.11 2.09v-1.68h-5.07v16.37h5.2v-9.76c0-1.31 0.81-2.34 2.24-2.34 1.24 0 2.15 0.81 2.15 2.34zm18.69-0.85c0 2-1.93 2.44-3.86 2.44-2.21 0-4.05-0.78-4.52-1l-1.52 3.99c1.46 0.75 3.73 1.4 6.04 1.4 4.85 0 9.06-1.9 9.06-7.95v-14.4h-4.86v1.27c-0.47-0.53-2.02-1.68-4.42-1.68-4.7 0-8 3.55-8 8.58 0 5.08 2.99 8.6 7.72 8.6 2.49 0 4.02-1.25 4.36-1.65zm0.15-7.39c0 2.59-1.46 4.05-3.51 4.05-2.12 0-3.52-1.65-3.52-4.05 0-2.43 1.4-3.96 3.48-3.96 2.25 0 3.55 1.78 3.55 3.96zm26.48 8.23h5.29v-21.83h-5.23v13.54l-7.97-13.54h-5.42v21.83h5.23v-13.38zm23.25-6.83q0.04-0.56 0.04-1.02c0-5.59-2.84-8.92-8.04-8.92-4.79 0-8.03 3.83-8.03 8.64 0 4.83 3.3 8.54 8.69 8.54 4.23 0 6.47-2.65 6.94-3.62l-3.43-2.65c-0.31 0.47-1.46 1.75-3.42 1.75-1.93 0-3.33-1.25-3.46-2.71zm-7.9-5.74c1.62 0 2.58 1.12 2.64 2.43h-5.29c0.12-1.15 0.93-2.43 2.65-2.43zm23.21 12.57h5.85l4.58-16.38h-5.67l-2.21 10.7-2.46-10.7h-4.85l-2.46 10.7-2.21-10.7h-5.67l4.58 16.37h5.85l2.34-9.26zm16.74 0.41c3.74 0 6.67-2.06 6.67-5.39 0-5.93-7.54-4.74-7.54-6.8 0-0.5 0.44-0.81 1.19-0.81 1.27 0 2.21 0.78 2.7 1.27l3.37-2.65c-0.97-1.31-2.74-2.8-5.86-2.8-3.55 0-6.29 1.9-6.29 5.05 0 5.96 7.48 5.14 7.48 7.02 0 0.59-0.47 0.9-1.47 0.9-1.65 0-2.74-0.65-3.61-1.43l-2.92 2.83c0.96 1.31 3.17 2.81 6.28 2.81z"/>
	<path class="s0" d="m60.56 10.4l0.49 1.49h1.15l-2-5.78h-1.2l-2 5.78h1.15l0.49-1.48zm-0.3-0.97h-1.32l0.66-2.08zm2.87 2.45h2.98v-1.05h-1.84v-4.74h-1.14zm3.99 0h2.98v-1.05h-1.84v-4.73h-1.14zm9.41-1.49l0.5 1.49h1.14l-2-5.79h-1.2l-2 5.79h1.15l0.49-1.49zm-0.3-0.97h-1.31l0.65-2.08zm2.87 2.46h1.9c1.04 0 1.93-0.57 1.93-1.7 0-0.59-0.33-1.08-0.86-1.31 0.41-0.23 0.68-0.72 0.68-1.25 0-0.94-0.74-1.53-1.86-1.53h-1.79zm1.14-3.45v-1.33h0.63c0.42 0 0.71 0.26 0.71 0.66 0 0.4-0.3 0.67-0.7 0.67zm0 2.45v-1.51h0.7c0.46 0 0.82 0.27 0.82 0.75 0 0.47-0.36 0.76-0.82 0.76zm6.44 1.11c1.74 0 2.94-1.3 2.94-3 0-1.69-1.2-3-2.94-3-1.74 0-2.94 1.31-2.94 3 0 1.7 1.21 3 2.94 3zm0-4.91c1.02 0 1.76 0.82 1.76 1.91 0 1.1-0.74 1.91-1.76 1.91-1.02 0-1.75-0.81-1.75-1.91 0-1.09 0.74-1.91 1.75-1.91zm6.3 4.91c1.46 0 2.28-0.92 2.28-2.29v-3.61h-1.14v3.62c0 0.73-0.41 1.19-1.14 1.19-0.73 0-1.14-0.46-1.14-1.19v-3.62h-1.14v3.62c0 1.36 0.82 2.28 2.28 2.28zm4.62-0.11h1.13v-4.74h1.32v-1.05h-3.78v1.05h1.33zm6.77 0h1.14v-4.73h1.31v-1.05h-3.77v1.05h1.32zm3.49 0h1.14v-2.39h2.35v2.38h1.14v-5.78h-1.14v2.35h-2.35v-2.35h-1.14zm6.04 0h2.98v-1.05h-1.84v-1.37h1.51v-1.03h-1.51v-1.29h1.76v-1.05h-2.9zm9.16-5.89c-1.72 0-2.93 1.34-2.93 3 0 1.82 1.34 3 2.93 3 1.19 0 1.87-0.42 2.48-0.95v-2.29h-2.14v0.98h1.07v0.71c-0.12 0.13-0.57 0.46-1.36 0.46-1.01 0-1.79-0.73-1.79-1.91 0-1.08 0.69-1.92 1.79-1.92q0.21 0 0.41 0.04 0.2 0.04 0.39 0.12 0.19 0.08 0.36 0.2 0.17 0.12 0.3 0.28l0.72-0.76c-0.29-0.36-1.04-0.96-2.23-0.96zm6.81 4.4l0.5 1.49h1.14l-2-5.79h-1.2l-2 5.79h1.15l0.49-1.49zm-0.3-0.96h-1.31l0.65-2.09zm4.33-3.33h-1.47v5.79h1.09v-4.14l1.47 3.65h1.06l1.47-3.65v4.14h1.09v-5.79h-1.47l-1.63 3.94zm6.11 5.79h2.98v-1.04h-1.84v-1.37h1.52v-1.04h-1.52v-1.29h1.77v-1.05h-2.91z"/>
</svg>