<svg version="1.2" xmlns="http://www.w3.org/2000/svg" viewBox="0 0 1306 216" width="1306" height="216">
	<defs>
		<linearGradient id="g1" x2="1" gradientUnits="userSpaceOnUse" gradientTransform="matrix(210,0,0,210,3,109)">
			<stop offset="0" stop-color="#c2c275"/>
			<stop offset="1" stop-color="#e6e685"/>
		</linearGradient>
	</defs>
	<style>
		.s0 { fill: url(#g1) } 
		.s1 { fill: #00061a } 
		.s2 { fill: #ffffff } 
	</style>
	<path id="Layer 1" fill-rule="evenodd" class="s0" d="m43 4h130c22.09 0 40 17.91 40 40v130c0 22.09-17.91 40-40 40h-130c-22.09 0-40-17.91-40-40v-130c0-22.09 17.91-40 40-40z"/>
	<path fill-rule="evenodd" class="s1" d="m147.8 90.97l2.18 0.15 2.95 0.78 1.87 0.93 1.39 1.09 2.49 2.33 2.49 2.64 1.86 1.71 2.33 2.48 2.33 2.18 9.63 9.63v0.31l0.62 0.31 1.87 1.87 1.08 1.24 1.25 1.55 1.08 2.18 0.47 1.55 0.16 1.24v2.18l-0.47 2.48-0.78 1.87-0.77 1.4-1.25 1.55-2.48 2.64-20.66 20.66-1.71 1.4-2.33 1.4-2.49 0.93-0.77 0.16h-3.27l-3.1-0.94-1.4-0.77-2.18-1.71-12.74-12.74-1.71-1.4-2.01-1.55-2.02-1.25-2.49-1.24-1.86-0.77-3.89-0.94-2.64-0.31h-4.97l-2.64 0.31-2.64 0.62-2.33 0.78-3.26 1.55-2.8 1.87-1.55 1.24-1.87 1.71-2.48 2.49-1.25 1.08-0.62 0.78-1.09 0.93-0.77 0.78-1.71 1.86-1.56 1.4-0.77 0.93-0.78 0.78-2.02 1.87-2.17 1.39-2.33 0.94-1.4 0.31h-2.95l-2.33-0.63-1.87-0.77-1.55-1.09-2.18-1.86-7.45-7.46v-0.31h-0.31l-0.78-0.78v-0.31h-0.31v-0.31h-0.31l-13.21-13.2-1.71-2.18-1.08-2.17-0.78-2.65v-2.95l0.62-2.48 1.09-2.49 1.24-1.55 2.33-2.49 2.33-2.33 1.25-1.09 2.17-2.33 2.33-2.33 1.24-1.08 3.42-3.42 1.09-1.24 1.24-1.09 2.49-2.64 3.41-3.42 1.25-1.09 2.17-1.55 2.02-0.93 2.02-0.47h3.11l2.48 0.62 2.49 1.25 1.86 1.39 13.99 13.99 1.55 1.24 2.48 1.55 2.49 1.24 2.95 1.25 4.04 0.93 2.49 0.31h3.26l3.42-0.47 4.04-1.08 3.57-1.56 2.48-1.4 1.71-1.24 1.71-1.4 12.9-12.89 1.71-1.4 2.01-1.24 2.18-0.93zm-41.01-59.97h3.26l2.33 0.62 2.49 1.24 2.17 1.71 23.3 23.31 1.56 2.02 1.24 2.48 0.47 1.4 0.15 1.09v2.48l-0.62 2.64-0.78 2.02-1.24 1.71-1.4 1.56-23.3 23.3-2.02 1.4-2.18 1.08-2.17 0.47h-3.42l-2.48-0.62-1.56-0.78-1.55-1.09-1.55-1.39-23.62-23.62-1.4-1.86-0.93-2.33-0.46-1.87v-3.1l0.62-2.33 0.77-1.87 1.09-1.71 6.53-6.52 0.77-0.93 0.94-0.78 11.34-11.34 0.77-0.93 3.89-3.89 2.17-1.71 1.55-0.93 1.71-0.62zm0.78 118.07h2.02l1.4 0.46 1.86 1.4 2.33 2.33 0.78 0.62 1.09 1.25 22.99 22.99 0.93 1.55 0.62 1.71v1.09l-0.46 1.55-0.78 1.25-1.24 1.08-1.4 0.62-0.78 0.16h-56.7l-2.02-0.78-0.93-0.77-1.25-2.18-0.31-1.24 0.16-1.4 0.93-1.86 1.4-1.56 26.72-26.72 1.71-1.24z"/>
	<path id="Daily media casino" class="s2" aria-label="Daily media casino"  d="m301.9 70.5q17.8 0 28.1 4.3 10.2 4.3 14.3 11.9 4.1 7.6 4.1 18.6 0 10.5-4.7 18.3-4.7 7.8-14.1 12.2-9.5 4.2-23.2 4.2-8.4 0-17.1 0-8.7 0-17.5-0.1 0.7-18.6 0.7-34.6 0-16.2-0.7-33.9 11.2-0.9 30.1-0.9zm-6.6 50.7h13.7q8.8 0 11.7-4.2 2.9-4.3 2.9-11.7 0-7.2-3.1-11.6-3-4.4-11.5-4.4-9.1 0-13.7 0.5zm120.9-8.1v11.2q0 3.2 0.8 4.6 0.7 1.3 3 1.9l-0.4 8.8q-3 0.5-5.3 0.7-2.1 0.2-5.8 0.2-8.1 0-10.8-3.6-2.6-3.7-2.6-9.4v-2.3q-2.7 7.7-8 11.5-5.2 3.8-13.3 3.8-9.4 0-14.3-3.8-4.7-3.8-4.7-11.2 0-6.2 4.1-9.6 4-3.5 12.5-4.9-7.1-5-14.3-8.8 5.7-7.2 12.9-10.9 7.3-3.7 17.6-3.7 14.6 0 21.5 6.3 7.1 6.2 7.1 19.2zm-26.6-8.9q-4.8 0-8.5 1.6-3.6 1.6-6.6 4.8 5.7-0.7 14.2-0.7 3.5 0 4.9-0.8 1.4-0.9 1.4-2.2 0-1.1-1.4-1.9-1.4-0.8-4-0.8zm-9.9 20.9q5.3 0 9.5-2 4.3-2.1 5.9-5.4v-2.4q-2.3 1.1-5 1.8-2.7 0.5-6.6 1.1l-3.4 0.6q-5.3 1-5.3 3.6 0 2.7 4.9 2.7zm58.7-42.2q-5.9 0-8.9-2.9-2.8-2.9-2.8-7.6 0-4.6 2.8-7.7 3-3 8.9-3 5.7 0 8.7 3.1 3 3.1 3 7.6 0 4.7-2.9 7.6-2.9 2.9-8.8 2.9zm11.5 57.1h-22.4q0.6-15.2 0.6-25.1 0-11.8-0.7-26.4h22.6q-0.7 14.1-0.7 26.4 0 10.4 0.6 25.1zm31-37.7q-0.1 5.6-0.1 17.3 0 14.1 0.2 20.4h-22.2l0.1-10.7q0.2-17.5 0.2-27 0-9.1-0.2-25.7l-0.1-10.2h22.2q-0.2 13.4-0.2 21.9 0 9.4 0.1 14zm48.2-13.8h21.7l-2.1 5.5q-9 23.8-18.8 46-5.1 11.3-14.7 18.2-9.6 6.8-24.2 6.5-1.8-7.8-3-12.2-1.1-4.4-3-8.8 5.2 1.2 9.7 1.2 7.4 0 11.7-3.1-3.4-10.1-8-21.7-4.6-11.6-13.4-31.6h22.3q1.2 4.7 3.2 10.9 1.9 6.3 3.9 12 0.6 1.8 1.8 5.5 1.3 3.6 2.1 6l2.4-7.4q7.1-20.5 8.4-27zm138.7 51.5h-21.9q0.7-12.4 0.7-25.6 0-4.2-2.2-6.6-2-2.4-5.5-2.4-3.2 0-5.6 2.8-2.2 2.8-2.2 8.2v-0.1q0 16.7 0.4 23.7h-21.2q0.6-13.9 0.6-25.6 0-4.1-2.1-6.6-2-2.4-5.1-2.4-3.3 0-5.6 2.8-2.1 2.8-2.5 7.6-0.2 7.1-0.2 10.1 0 6.5 0.4 14.1h-22.6q0.8-13.6 0.8-25.7 0-12-0.8-25.8 6.3 0.3 9.6 0.3 3.5 0 9.5-0.3l2.8 14q2.2-7.7 6.9-11.3 4.7-3.6 10.9-3.6 7.3 0 11.9 4 4.7 4.1 5.9 10.6 2.1-6.7 7.2-10.7 5.1-3.9 11.6-3.9 8.5 0 13.3 5.7 4.8 5.7 4.8 15.6v15.6q0 10.7 0.2 15.5zm70.6-23.6h-11.7-30.8q0.8 4.2 3.7 6.8 3 2.6 8.5 2.6 3.9 0 7.4-1.6 3.5-1.6 5.6-4.4 6.3 3.1 16.8 6.7-2.9 6.6-10.7 10.6-7.6 3.8-20 3.8-16 0-23.7-7.3-7.7-7.5-7.7-19.5 0-11.8 7.7-19.2 7.6-7.3 23.7-7.3 9.7 0 16.7 3.2 7.1 3.2 10.9 8.9 3.7 5.7 3.7 13 0 2.5-0.1 3.7zm-29.8-14.6q-4.8 0-7.8 1.8-3 1.8-4.2 4.9h22.2q-1.1-3-3.6-4.8-2.6-1.9-6.6-1.9zm97.8-35.2q-0.5 17.6-0.5 36.7 0 19 0.5 36.7h-21.3l0.3-11.3q-2.7 6.3-7.9 9.3-5.2 2.9-12.3 2.9-6.1 0-11-3.4-4.9-3.5-7.6-9.5-2.8-6-2.8-13.2 0-7.1 2.8-13.3 2.7-6.3 7.6-10.1 5-3.8 11.3-3.8 7.4 0 12.6 3.1 5.2 3 7.8 9.4 0-5.4-0.4-17.3-0.4-11.5-0.4-16.2zm-31.3 58.5q4.6 0 7.6-2.5 2.9-2.7 2.9-8.3 0-5-2.9-7.4-3-2.4-7.4-2.4-4.2 0-7.2 2.8-2.8 2.6-2.8 7 0 4.8 2.7 7.8 2.6 3 7.1 3zm51.3-42.2q-5.9 0-8.9-2.9-2.8-2.9-2.8-7.6 0-4.6 2.8-7.7 3-3 8.9-3 5.7 0 8.7 3.1 3 3.1 3 7.6 0 4.7-2.9 7.6-3 2.9-8.8 2.9zm11.5 57.1h-22.4q0.6-15.2 0.6-25.1 0-11.8-0.7-26.4h22.6q-0.8 14.1-0.8 26.4 0 10.4 0.7 25.1zm69.3-26.9v11.2q0 3.2 0.8 4.6 0.7 1.3 3 1.9l-0.4 8.8q-3 0.5-5.3 0.7-2.1 0.2-5.8 0.2-8.1 0-10.8-3.6-2.6-3.7-2.6-9.4v-2.3q-2.8 7.7-8 11.5-5.2 3.8-13.3 3.8-9.5 0-14.3-3.8-4.7-3.8-4.7-11.2 0-6.2 4.1-9.6 4-3.5 12.5-4.9-7.2-5-14.3-8.8 5.6-7.2 12.9-10.9 7.3-3.7 17.6-3.7 14.6 0 21.5 6.3 7.1 6.2 7.1 19.2zm-26.6-8.9q-4.8 0-8.5 1.6-3.7 1.6-6.6 4.8 5.7-0.7 14.2-0.7 3.5 0 4.9-0.8 1.4-0.9 1.4-2.2 0-1.1-1.4-1.9-1.4-0.8-4-0.8zm-9.9 20.9q5.3 0 9.5-2 4.3-2.1 5.9-5.4v-2.4q-2.3 1.1-5 1.8-2.7 0.5-6.6 1.1l-3.4 0.6q-5.3 1-5.3 3.6 0 2.7 4.9 2.7zm84.2-10.8q0.2 4.8 3 7.7 2.9 2.9 8.6 2.9 3.1 0 5.6-1.1 2.4-1.2 4.5-3.6 8 3.1 18.8 5.4-3.2 7.2-10.6 11.3-7.4 4-19.1 4-15.8 0-23.3-7.3-7.6-7.4-7.6-19.3 0-12 7.6-19.4 7.5-7.3 23.3-7.3 11.7 0 19.1 4 7.4 4.1 10.6 11.3-8.4 1.8-18.8 5.4-2.1-2.3-4.5-3.5-2.5-1.2-5.6-1.2-5.7 0-8.6 2.9-2.8 2.9-3 7.8zm108.3-1.2v11.2q0 3.2 0.8 4.6 0.7 1.3 3 1.9l-0.4 8.8q-3 0.5-5.3 0.7-2.1 0.2-5.8 0.2-8.1 0-10.8-3.6-2.6-3.7-2.6-9.4v-2.3q-2.8 7.7-8 11.5-5.2 3.8-13.3 3.8-9.5 0-14.3-3.8-4.7-3.8-4.7-11.2 0-6.2 4.1-9.6 4-3.5 12.5-4.9-7.2-5-14.3-8.8 5.6-7.2 12.9-10.9 7.3-3.7 17.6-3.7 14.6 0 21.5 6.3 7.1 6.2 7.1 19.2zm-26.6-8.9q-4.8 0-8.5 1.6-3.7 1.6-6.6 4.8 5.7-0.7 14.2-0.7 3.5 0 4.9-0.8 1.4-0.9 1.4-2.2 0-1.1-1.4-1.9-1.4-0.8-4-0.8zm-9.9 20.9q5.3 0 9.5-2 4.3-2.1 5.9-5.4v-2.4q-2.3 1.1-5 1.8-2.7 0.5-6.6 1.1l-3.4 0.6q-5.3 1-5.3 3.6 0 2.7 4.9 2.7zm76.5 15.8q-7.9 0-16.1-2.1-8.1-2.3-15.3-6.8l9.9-13.5q4.4 3.1 10.5 4.9 6.1 1.7 10.5 1.7 4.3 0 6.6-1.1 2.3-1.3 2.3-3.1 0-1.6-1.1-2.4-1.2-0.9-3.1-0.9-1.3 0-2.9 0.1-1.5 0.1-2.4 0.2-4.9 0.6-10.1 0.6-8.4 0-13.7-3.1-5.2-3.2-5.2-10.4 0-8.3 7.9-12.8 7.8-4.6 23-4.6 7.4 0 15 2.1 7.6 2.1 13.5 6.4l-10.9 10.9q-5.4-2.8-10.1-4-4.6-1.2-9.3-1.2-3.3 0-5.7 1.3-2.3 1.3-2.3 3 0 1.4 0.9 2.1 1 0.8 2.6 0.8 1.7 0 4.5-0.3 6.9-0.5 10.3-0.5 9.8 0 15.1 3.3 5.4 3.3 5.4 10.1 0 10.2-7.9 14.8-7.9 4.5-21.9 4.5zm48.2-58q-5.9 0-8.9-2.9-2.8-2.9-2.8-7.6 0-4.6 2.8-7.7 3-3 8.9-3 5.7 0 8.7 3.1 3 3.1 3 7.6 0 4.7-2.9 7.6-3 2.9-8.8 2.9zm11.5 57.1h-22.4q0.6-15.2 0.6-25.1 0-11.8-0.7-26.4h22.6q-0.8 14.1-0.8 26.4 0 10.4 0.7 25.1zm66.9 0h-21.3q0.6-13.9 0.6-25.6 0-4.1-2.1-6.6-2-2.4-5.1-2.4-3.1 0-5.2 2.8-2.2 2.8-2.6 7.6-0.2 7.1-0.2 10.1 0 6.5 0.4 14.1h-22.5q0.7-13.6 0.7-25.7 0-12-0.7-25.8 6.2 0.3 9.5 0.3 3.5 0 9.5-0.3l2.7 13.9q2.2-7.6 6.8-11.2 4.7-3.6 10.8-3.6 5.6 0 9.8 2.5 4.1 2.5 6.2 6.7 2.2 4.2 2.2 9.5v13.6q0 12.6 0.5 20.1zm38.3 0.9q-16.1 0-23.7-7.3-7.6-7.5-7.6-19.5 0-11.8 7.6-19.2 7.6-7.3 23.7-7.3 10.9 0 18.1 3.5 7.4 3.5 10.9 9.6 3.5 5.9 3.5 13.4 0 12.1-8.1 19.5-8.1 7.3-24.4 7.3zm0.4-16q6.1 0 9.1-2.9 3.1-2.9 3.1-7.8 0-4.7-3.1-7.6-3-3-9.1-3-6.1 0-9 2.9-2.8 2.9-2.8 7.7 0 4.9 2.8 7.8 2.9 2.9 9 2.9z"/>
</svg>